<svg width="27" height="22" viewBox="0 0 27 22" fill="none" xmlns="http://www.w3.org/2000/svg">
<path d="M24.0721 5.57178C24.089 5.8051 24.089 6.03847 24.089 6.27179C24.089 13.3885 18.5899 21.5885 8.53905 21.5885C5.44258 21.5885 2.5661 20.7051 0.146461 19.1718C0.586408 19.2218 1.00938 19.2385 1.46626 19.2385C4.02122 19.2385 6.37321 18.3885 8.25139 16.9385C5.84867 16.8885 3.83513 15.3385 3.14137 13.2051C3.47981 13.2551 3.81819 13.2885 4.17355 13.2885C4.66423 13.2885 5.15497 13.2218 5.61179 13.1051C3.10757 12.6051 1.22933 10.4385 1.22933 7.82178V7.75514C1.95689 8.15514 2.80298 8.40513 3.6997 8.43846C2.22762 7.47175 1.26318 5.82177 1.26318 3.95509C1.26318 2.95511 1.53386 2.03845 2.00766 1.23843C4.69805 4.5051 8.74206 6.63839 13.2767 6.87177C13.1922 6.47177 13.1414 6.05514 13.1414 5.63847C13.1414 2.67177 15.5779 0.255127 18.6067 0.255127C20.1803 0.255127 21.6017 0.905127 22.5999 1.95513C23.8351 1.72181 25.0195 1.27178 26.0686 0.655127C25.6625 1.90515 24.7995 2.95515 23.6659 3.62178C24.7658 3.50517 25.8318 3.2051 26.8131 2.78847C26.0687 3.8551 25.1381 4.80506 24.0721 5.57178Z" fill="black"/>
</svg>
